<?xml version="1.0" encoding="UTF-8" standalone="no"?>
<svg
   xmlns:dc="http://purl.org/dc/elements/1.1/"
   xmlns:cc="http://creativecommons.org/ns#"
   xmlns:rdf="http://www.w3.org/1999/02/22-rdf-syntax-ns#"
   xmlns:svg="http://www.w3.org/2000/svg"
   xmlns="http://www.w3.org/2000/svg"
   xmlns:sodipodi="http://sodipodi.sourceforge.net/DTD/sodipodi-0.dtd"
   xmlns:inkscape="http://www.inkscape.org/namespaces/inkscape"
   version="1.1"
   width="512"
   height="512"
   x="0"
   y="0"
   viewBox="0 0 512 512"
   style="enable-background:new 0 0 512 512"
   xml:space="preserve"
   class=""
   id="svg30"
   sodipodi:docname="student.svg"
   inkscape:version="1.0.1 (3bc2e813f5, 2020-09-07)"><metadata
     id="metadata36"><rdf:RDF><cc:Work
         rdf:about=""><dc:format>image/svg+xml</dc:format><dc:type
           rdf:resource="http://purl.org/dc/dcmitype/StillImage" /></cc:Work></rdf:RDF></metadata><defs
     id="defs34" /><sodipodi:namedview
     pagecolor="#ffffff"
     bordercolor="#666666"
     borderopacity="1"
     objecttolerance="10"
     gridtolerance="10"
     guidetolerance="10"
     inkscape:pageopacity="0"
     inkscape:pageshadow="2"
     inkscape:window-width="1920"
     inkscape:window-height="1017"
     id="namedview32"
     showgrid="false"
     inkscape:lockguides="true"
     inkscape:zoom="1.6601562"
     inkscape:cx="256"
     inkscape:cy="256"
     inkscape:window-x="-8"
     inkscape:window-y="-8"
     inkscape:window-maximized="1"
     inkscape:current-layer="g28" /><g
     id="g28"><link
       type="text/css"
       rel="stylesheet"
       id="dark-mode-general-link" /><link
       type="text/css"
       rel="stylesheet"
       id="dark-mode-custom-link" /><style
       lang="en"
       type="text/css"
       id="dark-mode-custom-style" /><g
       id="Outline"
       transform="translate(-2.4094122,-1.8070588)"><path
         d="m 286.69,336.828 7.09,14.344 c -11.75304,5.79165 -24.67745,8.81168 -37.78,8.828 -12.18492,0.0182 -24.2302,-2.59399 -35.313,-7.658 l 6.626,-14.563 c 9.0034,4.11339 18.78846,6.23535 28.687,6.221 10.64379,-0.0128 21.14288,-2.46636 30.69,-7.172 z m 199.51,56.008 c 12.68765,21.00014 13.07865,47.20668 1.02315,68.57598 C 475.16765,482.78129 452.53533,495.99922 428,496 H 84 C 58.2435,496 34.697608,481.44784 23.178951,458.41052 11.660294,435.37321 14.1461,407.8052 29.6,387.2 l 46.44,-61.92 12.8,9.6 L 42.4,396.8 C 30.582312,412.55692 28.681402,433.63834 37.489786,451.25511 46.298171,468.87188 64.303853,480 84,480 h 36 V 432 H 88 c -6.710435,0.002 -10.441022,-7.76167 -6.247,-13 L 144,341.193 v -52.611 c -14.65925,2.1483 -27.88122,9.98735 -36.8,21.818 l -10.319,13.76 -12.8,-9.6 L 94.4,300.8 c 12.10319,-16.04795 30.33315,-26.34201 50.326,-28.418 2.9206,-15.03341 14.16283,-27.08275 28.958,-31.037 C 167.51501,231.10238 163.32786,219.79068 161.341,208 H 160 c -17.67312,0 -31.99999,-14.32689 -31.99999,-32 0,-17.67311 14.32687,-32 31.99999,-32 v -8 h -8 c -4.41828,0 -8,-3.58172 -8,-8 v -24 c -0.0198,-26.000486 11.47821,-50.674275 31.4,-67.382 l 10.3,12.246 c -3.68284,3.102692 -7.04684,6.565183 -10.042,10.336 19.4379,-3.974948 38.44184,-9.83602 56.742,-17.5 0.25707,-0.114134 0.52012,-0.214281 0.788,-0.3 l 2.512,7.75 3.182,7.172 c -0.36,0.16 -35.124,15.437 -73.73,20.9 -1.93215,4.822555 -3.33504,9.840621 -4.184,14.966 2.052,-0.179 4.092,-0.378 6.1,-0.613 6.9,-0.788 13.849,-1.929 20.681,-3.395 17.5401,-3.754877 34.54992,-9.659479 50.644,-17.58 6.44734,-3.107794 12.65154,-6.696604 18.56,-10.736 l 9.447,12.921 c -1.175,0.861 -29.318,21.194 -75.292,31.037 -7.334,1.574 -14.8,2.8 -22.2,3.646 -2.922,0.341 -5.9,0.623 -8.908,0.853 V 120 h 22.312 c 34.59487,0.0335 68.48218,-9.79745 97.688,-28.34 V 49.384 C 275.987,38.903977 265.92207,31.988222 254.7,32 H 232 c -12.63528,-0.007 -25.04958,3.313723 -35.994,9.628 l -8.012,-13.85 C 201.37408,20.056253 216.55163,15.994052 232,16 h 22.7 c 16.39797,-0.0139 31.37858,9.29299 38.631,24 H 296 c 30.91355,0.03472 55.96528,25.086447 56,56 v 48 c 17.67312,0 31.99999,14.32689 31.99999,32 0,17.67311 -14.32687,32 -31.99999,32 h -1.341 c -1.98734,11.79413 -6.17622,23.10899 -12.348,33.354 14.77764,3.97466 26.00761,16.0091 28.952,31.026 19.99713,2.07354 38.23166,12.36866 50.337,28.42 L 477,380 464.2,389.6 404.8,310.4 C 395.88122,298.56935 382.65925,290.7303 368,288.582 v 52.611 L 430.247,419 c 4.19402,5.23833 0.46343,13.00168 -6.247,13 h -32 v 48 h 36 c 18.76297,3.6e-4 36.07105,-10.10729 45.29055,-26.44895 9.21949,-16.34167 8.92043,-36.38275 -0.78255,-52.44205 z M 352,192 c 8.83656,0 15.99999,-7.16344 15.99999,-16 0,-8.83656 -7.16343,-16 -15.99999,-16 z M 160,160 c -8.83656,0 -15.99999,7.16344 -15.99999,16 0,8.83656 7.16343,16 15.99999,16 z m 168,96 h -0.512 c -4.64673,5.18587 -9.83945,9.85523 -15.488,13.927 V 272 h 38.624 C 347.2244,262.41945 338.16583,256.0131 328,256 Z m -8,32 v 128 h 32 V 288 Z M 296,94.426 c 7.99786,18.9768 22.06619,34.76359 40,44.886 V 122.473 C 321.145,101.235 299.777,86.8 299.557,86.652 l 8.881,-13.308 c 9.99659,6.985149 19.23429,14.997836 27.562,23.907 V 96 C 335.9752,73.91889 318.08111,56.024799 296,56 Z m -120,45.627 c 2.63014,-1.22503 5.19674,-2.58209 7.69,-4.066 -0.46,0 -0.919,0.013 -1.378,0.013 H 176 Z M 176,192 c 0,44.18281 35.81722,79.99997 80,79.99997 44.18278,0 80,-35.81716 80,-79.99997 v -34.736 c -22.24202,-10.28574 -40.37603,-27.75649 -51.483,-49.6 -22.10514,13.3064 -46.6015,22.1565 -72.107,26.051 -9.86379,9.94935 -21.65809,17.77637 -34.658,23 l -1.752,0.7 z m 80,96 c -13.80164,0.0147 -27.44224,-2.96444 -39.981,-8.732 3.83571,19.03693 20.56199,32.7292 39.9815,32.7292 19.41951,0 36.14579,-13.69227 39.9815,-32.7292 -12.53896,5.76804 -26.17999,8.74722 -39.982,8.732 z m -96,128 h 32 V 288 H 160 Z M 144,393.1 V 366.806 L 104.645,416 h 17.588 l 1.118,-3.352 C 126.53491,403.0908 134.28284,395.75598 144,393.1 Z m 56,46.9 c -0.005,-4.41622 -3.58378,-7.99504 -8,-8 h -40 c -4.41828,0 -8,-3.58172 -8,-8 v -13.537 c -2.56817,1.75059 -4.49005,4.29646 -5.47,7.246 L 136,425.3 V 480 h 56 c 4.41622,-0.005 7.99504,-3.58378 8,-8 z m 0,-170.073 C 194.35145,265.85523 189.15873,261.18587 184.512,256 H 184 c -10.17294,0.002 -19.24168,6.41146 -22.64,16 H 200 Z m 104,31.6 c -22.26771,35.30757 -73.75363,35.29202 -96,-0.029 v 120.633 c 5.09132,4.54408 8.0017,11.04476 8,17.869 v 32 c 0.001,2.72564 -0.46431,5.43136 -1.376,8 h 82.752 c -0.91169,-2.56864 -1.37708,-5.27436 -1.376,-8 v -32 c -0.002,-6.82424 2.90868,-13.32492 8,-17.869 z m 72,123.773 -2.53,-7.589 c -0.97995,-2.94954 -2.90183,-5.49541 -5.47,-7.246 V 424 c 0,4.41828 -3.58172,8 -8,8 h -40 c -4.41622,0.005 -7.99504,3.58378 -8,8 v 32 c 0.005,4.41622 3.58378,7.99504 8,8 h 56 z m 13.767,-9.3 h 17.588 L 368,366.806 V 393.1 c 9.71832,2.65696 17.4665,9.99388 20.649,19.553 z"
         fill="#0275d8"
         data-original="#000000"
         class=""
         id="path25"
         sodipodi:nodetypes="ccccccccscsssccssscccccccccccccssccssccccccccccccccccccccccccccccccccssccccccccccccccscccscccsccccccccccccccccccccccccsccssscccccsccscccccccccccccccsscccccccccccccccccccccccccccsscccccccccccc" /></g></g></svg>
